<svg width="14" height="14" viewBox="0 0 14 14" fill="none" xmlns="http://www.w3.org/2000/svg">
<path d="M7.33317 8.66634C5.10817 8.66634 0.666504 9.78301 0.666504 11.9997V13.6663H13.9998V11.9997C13.9998 9.78301 9.55817 8.66634 7.33317 8.66634ZM2.33317 11.9997C2.5165 11.3997 5.0915 10.333 7.33317 10.333C9.58317 10.333 12.1665 11.408 12.3332 11.9997H2.33317ZM7.33317 6.99967C9.17484 6.99967 10.6665 5.50801 10.6665 3.66634C10.6665 1.82467 9.17484 0.333008 7.33317 0.333008C5.4915 0.333008 3.99984 1.82467 3.99984 3.66634C3.99984 5.50801 5.4915 6.99967 7.33317 6.99967ZM7.33317 1.99967C8.24984 1.99967 8.99984 2.74967 8.99984 3.66634C8.99984 4.58301 8.24984 5.33301 7.33317 5.33301C6.4165 5.33301 5.6665 4.58301 5.6665 3.66634C5.6665 2.74967 6.4165 1.99967 7.33317 1.99967Z" fill="#6C727F"/>
</svg>
