<svg width="23" height="23" viewBox="0 0 23 23" fill="none" xmlns="http://www.w3.org/2000/svg">
<path d="M7.47499 1.91666H15.525C18.5917 1.91666 21.0833 4.40832 21.0833 7.47499V15.525C21.0833 16.9992 20.4977 18.4129 19.4553 19.4553C18.4129 20.4977 16.9992 21.0833 15.525 21.0833H7.47499C4.40832 21.0833 1.91666 18.5917 1.91666 15.525V7.47499C1.91666 6.00083 2.50227 4.58704 3.54465 3.54465C4.58704 2.50227 6.00083 1.91666 7.47499 1.91666ZM7.28332 3.83332C6.36833 3.83332 5.49081 4.1968 4.8438 4.8438C4.1968 5.49081 3.83332 6.36833 3.83332 7.28332V15.7167C3.83332 17.6237 5.37624 19.1667 7.28332 19.1667H15.7167C16.6317 19.1667 17.5092 18.8032 18.1562 18.1562C18.8032 17.5092 19.1667 16.6317 19.1667 15.7167V7.28332C19.1667 5.37624 17.6237 3.83332 15.7167 3.83332H7.28332ZM16.5312 5.27082C16.8489 5.27082 17.1536 5.39703 17.3783 5.62168C17.6029 5.84634 17.7292 6.15103 17.7292 6.46874C17.7292 6.78645 17.6029 7.09114 17.3783 7.31579C17.1536 7.54045 16.8489 7.66666 16.5312 7.66666C16.2135 7.66666 15.9088 7.54045 15.6842 7.31579C15.4595 7.09114 15.3333 6.78645 15.3333 6.46874C15.3333 6.15103 15.4595 5.84634 15.6842 5.62168C15.9088 5.39703 16.2135 5.27082 16.5312 5.27082ZM11.5 6.70832C12.7708 6.70832 13.9896 7.21316 14.8882 8.11177C15.7868 9.01038 16.2917 10.2292 16.2917 11.5C16.2917 12.7708 15.7868 13.9896 14.8882 14.8882C13.9896 15.7868 12.7708 16.2917 11.5 16.2917C10.2292 16.2917 9.01038 15.7868 8.11177 14.8882C7.21316 13.9896 6.70832 12.7708 6.70832 11.5C6.70832 10.2292 7.21316 9.01038 8.11177 8.11177C9.01038 7.21316 10.2292 6.70832 11.5 6.70832ZM11.5 8.62499C10.7375 8.62499 10.0062 8.92789 9.46706 9.46706C8.92789 10.0062 8.62499 10.7375 8.62499 11.5C8.62499 12.2625 8.92789 12.9938 9.46706 13.5329C10.0062 14.0721 10.7375 14.375 11.5 14.375C12.2625 14.375 12.9938 14.0721 13.5329 13.5329C14.0721 12.9938 14.375 12.2625 14.375 11.5C14.375 10.7375 14.0721 10.0062 13.5329 9.46706C12.9938 8.92789 12.2625 8.62499 11.5 8.62499Z" fill="white"/>
</svg>
