<svg width="76" height="76" viewBox="0 0 76 76" fill="none" xmlns="http://www.w3.org/2000/svg">
<path d="M76 28.5674C76 29.2906 76 29.8754 76 30.5168C76 45.4141 76 60.3114 76 75.2087C76 75.5734 76 75.7935 75.5016 75.7935C60.008 75.7746 44.5207 75.7746 29.0271 75.7746C28.8505 75.7746 28.6675 75.7746 28.5603 75.7746C44.3252 60.0536 60.1973 44.3262 76 28.5674Z" fill="white"/>
<path d="M47.7254 0.237497C46.5773 1.38199 45.5363 2.40701 44.5018 3.43831C43.6627 4.26838 42.8048 5.07959 41.991 5.9411C38.8494 9.29284 35.5248 12.4622 32.2759 15.7133C27.7464 20.2536 23.1791 24.7624 18.6307 29.29C14.7573 33.1511 10.9281 37.0626 7.00419 40.8733C4.93501 42.8856 0.380285 47.2247 0.197339 47.2812C0.197339 47.2812 0.197339 47.0171 0.197339 46.8788C0.184722 44.7533 0.172119 42.6341 0.172119 40.5086C0.172119 27.2778 0.184723 14.0469 0.178415 0.816033C0.178415 0.363266 0.247816 0.206055 0.758803 0.206055C16.183 0.22492 31.6009 0.22492 47.0251 0.22492C47.2018 0.22492 47.3847 0.22492 47.7191 0.22492L47.7254 0.237497Z" fill="white"/>
<path d="M60.9417 1.97309C62.2412 2.06741 63.6354 2.21833 65.0296 2.50131C66.8149 2.86604 68.4866 3.50117 70.1584 4.16775C71.0416 4.5199 71.6093 5.09844 71.9563 6.00397C72.6187 7.73329 73.2243 9.48147 73.5208 11.3051C73.7984 13.0093 73.9435 14.7386 73.7353 16.4616C73.4766 18.65 72.9783 20.7818 72.114 22.8192C70.8649 25.7685 69.0923 28.3719 66.9348 30.7175C64.5186 33.3524 61.8249 35.6728 58.7779 37.5656C58.4246 37.7857 58.3048 37.8172 58.1912 37.3455C57.7307 35.3961 56.797 33.6731 55.3965 32.2456C54.3809 31.208 53.1507 30.837 51.6493 31.0445C49.618 31.3275 48.0283 32.3965 46.489 33.5976C45.5553 34.3208 20.7504 57.7578 20.3025 58.1414C19.6654 58.6885 19.5329 59.2984 19.8483 60.0908C20.088 60.6945 20.1953 61.3485 20.2205 62.0087C20.2773 63.4111 19.8168 64.6499 19.0219 65.7755C18.1009 67.0709 16.9464 68.1337 15.7352 69.1587C14.3095 70.3661 12.7639 71.3848 11.1489 72.3155C10.8146 72.5104 10.6442 72.4475 10.4171 72.2149C8.93465 70.6931 7.43955 69.1901 5.96967 67.662C4.46826 66.1151 2.99207 64.543 1.49065 62.996C1.16892 62.6627 1.11215 62.4426 1.39603 62.0276C2.44324 60.4995 3.52198 59.0029 4.76475 57.6194C5.98229 56.2611 7.28813 55.0286 8.90941 54.1796C10.0828 53.5634 11.3003 53.3433 12.6566 53.664C13.4515 53.8526 14.1707 54.1796 14.9403 54.406C15.3567 54.5318 15.6973 54.5004 15.9686 54.2048C16.5364 53.576 39.5623 30.9502 40.7861 29.6673C42.0731 28.3279 43.2717 26.9004 44.0161 25.1648C44.7352 23.4858 44.9686 21.7942 43.789 20.2347C43.0698 19.2726 42.0415 18.6186 41.0259 17.9771C40.1868 17.4426 39.2595 17.1219 38.3195 16.8452C37.9284 16.732 37.9599 16.5748 38.1366 16.3296C38.7548 15.4555 39.3226 14.5374 40.0039 13.7199C40.988 12.5377 41.9974 11.3617 43.1077 10.299C45.7383 7.77731 48.5897 5.53234 51.9584 4.03569C53.8068 3.21819 55.7183 2.58935 57.7433 2.30008C58.7716 2.15545 59.7999 2.00453 60.9543 1.9668L60.9417 1.97309ZM11.458 54.1671C10.8146 54.1419 10.2279 54.1482 9.67275 54.3935C8.41736 54.9531 7.34491 55.7769 6.35448 56.7139C4.63858 58.3363 3.21916 60.1977 1.93224 62.1722C1.7556 62.4426 1.80608 62.537 1.98903 62.7319C2.82175 63.6123 3.70492 64.4487 4.53764 65.3353C6.50588 67.4482 8.53722 69.4983 10.537 71.5797C10.7641 71.8124 10.947 71.8313 11.2372 71.6489C13.7165 70.1271 16.0822 68.4921 17.9747 66.2409C18.6055 65.4862 19.1039 64.6813 19.4382 63.7695C19.9114 62.493 19.5581 61.2667 19.1796 60.0468C18.9273 59.2293 18.8831 58.4998 19.6654 57.8835C20.2899 57.393 20.8324 56.8019 21.4065 56.2485C23.0656 54.6513 24.6995 53.0289 26.4091 51.4819C27.633 50.3751 28.737 49.1426 29.9797 48.0484C30.7115 47.4007 31.3991 46.709 32.0741 46.011C32.604 45.4639 33.134 44.9042 33.6954 44.4074C34.4524 43.7408 35.1905 43.0428 35.8718 42.326C36.8118 41.345 37.859 40.4834 38.7927 39.4899C40.3382 37.8486 42.1235 36.44 43.6376 34.761C43.9151 34.4528 44.2747 34.2202 44.546 33.9057C45.5995 32.7109 46.6467 31.5098 47.675 30.2962C48.5392 29.2712 49.4224 28.2587 50.2173 27.1834C51.3844 25.605 52.6334 24.0769 53.668 22.3979C53.7753 22.2218 53.8573 21.9451 53.6239 21.7313C53.3337 21.4672 52.8858 21.7816 52.6902 21.92C51.4475 22.7689 50.1794 23.5927 48.9493 24.4731C47.8075 25.2906 46.6719 26.1081 45.6058 27.0262C44.5081 27.9757 43.2906 28.7932 42.2308 29.7805C41.6252 30.3528 40.9502 30.8307 40.3509 31.4029C38.9819 32.7109 37.6824 34.0818 36.2945 35.3647C35.0517 36.5154 33.9099 37.7794 32.6608 38.9239C31.5442 39.9489 30.4465 40.9928 29.3615 42.043C28.5477 42.829 27.7528 43.6465 26.9201 44.4074C25.9991 45.2438 25.1411 46.143 24.2201 46.9794C22.5231 48.5201 20.9207 50.1613 19.2679 51.7523C18.3721 52.6201 17.4448 53.4565 16.5679 54.3431C15.8298 55.0915 15.0665 55.1984 14.1265 54.7205C13.2812 54.2928 12.3601 54.0476 11.4391 54.1545L11.458 54.1671Z" fill="white"/>
<path d="M39.3982 33.6982C40.0543 33.0002 40.7987 32.3839 41.4737 31.7048C42.3884 30.7867 43.4293 30.0195 44.4323 29.2083C45.284 28.5166 46.1167 27.7997 46.9873 27.1205C47.7569 26.5231 48.5581 25.976 49.3466 25.4101C49.4413 25.3409 49.8261 25.0328 50.0595 25.2529C50.2109 25.3975 50.0595 25.7182 49.9775 25.8377C49.6684 26.2904 49.4034 26.6426 49.0691 27.0828C48.5139 27.8185 47.9272 28.5354 47.3658 29.2649C46.7854 30.0132 46.1482 30.7364 45.4859 31.4407C44.262 32.7361 43.0886 34.0881 41.7828 35.2955C41.2087 35.83 39.5307 37.5908 38.4771 36.2639C37.8589 35.503 38.8556 34.2768 39.4108 33.6919L39.3982 33.6982ZM39.5244 34.9056C39.5811 35.264 39.7515 35.5596 40.1678 35.5282C40.5526 35.503 40.8554 35.2703 40.8428 34.8616C40.8302 34.4528 40.5589 34.2264 40.13 34.2327C39.701 34.2327 39.5559 34.5094 39.5244 34.9056ZM42.4452 32.0444C42.0099 32.0066 41.8459 32.2959 41.8522 32.6606C41.8522 33.0191 42.073 33.2392 42.4704 33.2517C42.9372 33.2706 43.1265 32.9751 43.1454 32.5915C43.1643 32.1701 42.8552 32.0255 42.4515 32.0444H42.4452Z" fill="white"/>
<path d="M13.1801 66.052C12.8332 66.335 12.4862 66.618 12.1645 66.9261C11.8995 67.1776 11.7039 67.1902 11.439 66.9261C9.8114 65.2911 8.1775 63.6624 6.54991 62.0274C6.45529 61.9331 6.22189 61.845 6.42376 61.6438C7.24386 60.8578 7.90624 59.9271 8.82097 59.2228C10.2593 58.1223 13.0666 58.5373 14.221 60.1346C16.183 63.2474 14.2778 65.1653 13.1864 66.0457L13.1801 66.052ZM14.5617 62.5619C14.4797 62.2412 14.404 61.9142 14.3093 61.5998C13.7037 59.4617 11.1299 58.6568 9.31934 59.6378C8.48032 60.0906 7.98824 60.9269 7.29431 61.5495C7.09875 61.7256 7.21861 61.8639 7.3574 62.0023C7.70436 62.3481 8.07657 62.6688 8.392 63.0398C9.33827 64.1466 10.4549 65.0899 11.439 66.1589C11.6661 66.4042 11.9058 66.5111 12.1897 66.1463C12.3789 65.9074 12.7007 65.7753 12.9404 65.5741C13.8804 64.7943 14.5238 63.8511 14.5554 62.5682L14.5617 62.5619Z" fill="white"/>
</svg>
