<svg width="20" height="21" viewBox="0 0 20 21" fill="none" xmlns="http://www.w3.org/2000/svg">
<path d="M13.8333 5.35C13.2638 4.69961 12.9499 3.8645 12.95 3H10.375V13.3333C10.3556 13.8927 10.1196 14.4226 9.71693 14.8112C9.31425 15.1999 8.77634 15.417 8.21667 15.4167C7.03334 15.4167 6.05001 14.45 6.05001 13.25C6.05001 11.8167 7.43334 10.7417 8.85834 11.1833V8.55C5.98334 8.16667 3.46667 10.4 3.46667 13.25C3.46667 16.025 5.76667 18 8.20834 18C10.825 18 12.95 15.875 12.95 13.25V8.00833C13.9942 8.75821 15.2478 9.16054 16.5333 9.15833V6.58333C16.5333 6.58333 14.9667 6.65833 13.8333 5.35Z" fill="white"/>
</svg>
