<?xml version="1.0" encoding="UTF-8"?>
<svg id="Capa_1" data-name="Capa 1" xmlns="http://www.w3.org/2000/svg" viewBox="0 0 247.36 63.17">
  <defs>
    <style>
      .cls-1 {
        fill: #fff;
      }

      .cls-2 {
        fill: #c81f27;
      }

      .cls-3 {
        fill: #010101;
      }
    </style>
  </defs>
  <rect class="cls-1" x="184.73" y=".47" width="61.96" height="61.96"/>
  <g>
    <g>
      <path class="cls-1" d="m36.92,25.74h10.87l1.91,4.8h9.96L47.17,2.98h-9.47l-12.49,27.56h9.79l1.91-4.8Zm2.67-6.69l2.77-6.94,2.77,6.94h-5.53Z"/>
      <path class="cls-1" d="m60.88,26.69c1.37,1.23,2.99,2.18,4.85,2.85,1.86.67,3.89,1,6.08,1,2.69,0,5.07-.46,7.14-1.38,2.07-.92,3.79-2.22,5.15-3.91l-5.83-5.02c-.81.98-1.7,1.74-2.68,2.28-.98.54-2.08.81-3.31.81-.97,0-1.84-.15-2.62-.45-.78-.3-1.45-.74-2.02-1.32-.56-.58-1-1.28-1.31-2.09-.31-.82-.47-1.73-.47-2.74s.16-1.92.47-2.74c.31-.82.75-1.52,1.31-2.09.56-.58,1.23-1.02,2.02-1.32.78-.3,1.66-.45,2.62-.45,1.23,0,2.33.27,3.31.81.98.54,1.87,1.3,2.68,2.28l5.83-5.02c-1.36-1.71-3.07-3.02-5.15-3.92s-4.45-1.36-7.14-1.36c-2.19,0-4.22.33-6.08,1-1.87.67-3.48,1.62-4.85,2.85-1.37,1.23-2.43,2.69-3.19,4.38-.76,1.69-1.13,3.55-1.13,5.59s.38,3.9,1.13,5.59c.76,1.69,1.82,3.15,3.19,4.38Z"/>
      <path class="cls-1" d="m86.36,27.22c1.37,1.26,2.99,2.23,4.85,2.9,1.86.68,3.89,1.02,6.08,1.02,2.69,0,5.07-.47,7.14-1.4,2.07-.94,3.79-2.26,5.15-3.98l-5.83-5.12c-.81,1-1.7,1.78-2.68,2.33-.98.55-2.08.83-3.31.83-.97,0-1.84-.15-2.62-.46-.78-.31-1.45-.76-2.02-1.35-.56-.59-1-1.3-1.31-2.14-.31-.83-.47-1.76-.47-2.79s.16-1.96.47-2.79c.31-.83.75-1.54,1.31-2.13.56-.59,1.23-1.04,2.02-1.35.78-.31,1.66-.46,2.62-.46,1.23,0,2.33.28,3.31.83.98.55,1.87,1.33,2.68,2.33l5.83-5.12c-1.36-1.74-3.07-3.08-5.15-4s-4.45-1.38-7.14-1.38c-2.19,0-4.22.34-6.08,1.02-1.87.68-3.48,1.65-4.85,2.9-1.37,1.26-2.43,2.74-3.19,4.46-.76,1.72-1.13,3.62-1.13,5.69s.38,3.98,1.13,5.69c.76,1.72,1.82,3.21,3.19,4.46Z"/>
      <rect class="cls-1" x="110.1" y="2.98" width="9.23" height="27.56"/>
      <path class="cls-1" d="m146.34,27.15c1.38-1.27,2.46-2.77,3.23-4.49.77-1.72,1.15-3.6,1.15-5.63s-.39-3.94-1.15-5.65c-.77-1.71-1.85-3.2-3.23-4.47-1.38-1.27-3.01-2.26-4.89-2.95s-3.94-1.04-6.18-1.04-4.27.35-6.16,1.04c-1.89.69-3.53,1.68-4.91,2.95-1.38,1.27-2.46,2.76-3.23,4.47-.77,1.71-1.15,3.59-1.15,5.65s.38,3.91,1.15,5.63c.77,1.72,1.85,3.22,3.23,4.49,1.38,1.27,3.02,2.26,4.91,2.95,1.89.69,3.96,1.04,6.2,1.04s4.26-.35,6.14-1.04c1.88-.69,3.51-1.68,4.89-2.95Zm-5.4-7.29c-.31.84-.75,1.54-1.31,2.12-.56.58-1.21,1.02-1.96,1.33-.74.31-1.55.46-2.41.46s-1.66-.15-2.41-.46c-.74-.31-1.4-.75-1.96-1.33-.56-.58-1-1.29-1.31-2.12-.31-.84-.47-1.78-.47-2.83s.16-2,.47-2.83c.31-.83.75-1.54,1.31-2.12.56-.58,1.21-1.02,1.96-1.33.74-.31,1.55-.46,2.41-.46s1.66.15,2.41.46c.74.31,1.4.75,1.96,1.33.56.58,1,1.29,1.31,2.12.31.84.47,1.78.47,2.83s-.16,2-.47,2.83Z"/>
      <polygon class="cls-1" points="161.47 18.01 171.88 30.54 179.47 30.54 179.47 2.98 170.47 2.98 170.47 15.51 160.06 2.98 152.47 2.98 152.47 30.54 161.47 30.54 161.47 18.01"/>
      <path class="cls-1" d="m19.57,34.63c-1.8-.8-3.93-1.21-6.4-1.21H.45v26.42h8.91v-6.49h3.81c2.47,0,4.6-.41,6.4-1.23,1.8-.82,3.19-1.97,4.17-3.45.98-1.48,1.47-3.25,1.47-5.28s-.49-3.81-1.47-5.3c-.98-1.5-2.37-2.65-4.17-3.45Zm-4.23,11.02c-.59.55-1.5.83-2.74.83h-3.25v-6.19h3.25c1.23,0,2.14.28,2.74.83.59.55.89,1.31.89,2.26s-.3,1.71-.89,2.26Z"/>
      <path class="cls-1" d="m50.8,36.28c-1.33-1.25-2.91-2.21-4.72-2.89s-3.8-1.02-5.96-1.02-4.12.34-5.94,1.02c-1.82.68-3.4,1.64-4.74,2.89-1.33,1.25-2.37,2.71-3.11,4.38-.74,1.67-1.11,3.52-1.11,5.53s.37,3.82,1.11,5.51c.74,1.69,1.78,3.15,3.11,4.4,1.33,1.25,2.91,2.21,4.74,2.89,1.82.68,3.82,1.02,5.98,1.02s4.11-.34,5.93-1.02c1.81-.68,3.38-1.64,4.72-2.89,1.33-1.25,2.37-2.71,3.11-4.4.74-1.69,1.11-3.52,1.11-5.51s-.37-3.86-1.11-5.53c-.74-1.67-1.78-3.13-3.11-4.38Zm-5.21,12.68c-.3.82-.72,1.51-1.26,2.08-.54.57-1.17,1-1.89,1.3s-1.49.45-2.32.45-1.6-.15-2.32-.45-1.35-.74-1.89-1.3c-.54-.57-.96-1.26-1.26-2.08-.3-.82-.45-1.74-.45-2.77s.15-1.96.45-2.77c.3-.82.72-1.51,1.26-2.08.54-.57,1.17-1,1.89-1.3.72-.3,1.49-.45,2.32-.45s1.6.15,2.32.45c.72.3,1.35.74,1.89,1.3.54.57.96,1.26,1.26,2.08.3.82.45,1.74.45,2.77s-.15,1.96-.45,2.77Z"/>
      <path class="cls-1" d="m74.14,34.63c-1.8-.8-3.93-1.21-6.4-1.21h-12.72v26.42h8.91v-6.49h3.81c2.47,0,4.6-.41,6.4-1.23,1.8-.82,3.19-1.97,4.17-3.45.98-1.48,1.47-3.25,1.47-5.28s-.49-3.81-1.47-5.3c-.98-1.5-2.37-2.65-4.17-3.45Zm-4.23,11.02c-.59.55-1.5.83-2.74.83h-3.25v-6.19h3.25c1.23,0,2.14.28,2.74.83.59.55.89,1.31.89,2.26s-.3,1.71-.89,2.26Z"/>
      <path class="cls-1" d="m96.76,47.24c0,2.01-.36,3.44-1.08,4.28-.72.84-1.7,1.26-2.96,1.26s-2.21-.42-2.94-1.26c-.73-.84-1.09-2.27-1.09-4.28v-14.27h-8.91v14.53c0,3.95,1.13,7.02,3.4,9.21,2.26,2.19,5.42,3.28,9.47,3.28s7.21-1.09,9.47-3.28c2.26-2.19,3.4-5.26,3.4-9.21v-14.53h-8.76v14.27Z"/>
      <polygon class="cls-1" points="114.9 32.97 106 32.97 106 59.39 126.83 59.39 126.83 52.49 114.9 52.49 114.9 32.97"/>
      <path class="cls-1" d="m132.69,32.97l-11.55,26.42h9.06l1.77-4.6h10.05l1.77,4.6h9.21l-11.55-26.42h-8.76Zm1.74,15.4l2.56-6.65,2.56,6.65h-5.11Z"/>
      <path class="cls-1" d="m169.96,59.54h9.51l-5.54-8.13c1.48-.76,2.65-1.78,3.51-3.06.98-1.47,1.47-3.23,1.47-5.26s-.49-3.81-1.47-5.3c-.98-1.5-2.37-2.65-4.17-3.45-1.8-.8-3.93-1.21-6.4-1.21h-12.72v26.42h8.91v-6.64h2.43l4.48,6.64Zm-.92-18.72c.59.55.89,1.31.89,2.26s-.3,1.71-.89,2.26c-.59.55-1.5.83-2.74.83h-3.25v-6.19h3.25c1.23,0,2.14.28,2.74.83Z"/>
    </g>
    <g>
      <path class="cls-2" d="m244.11,24.33c0,.55,0,.99,0,1.47,0,11.25,0,22.95,0,34.2,0,0-35.65,0-35.73,0,11.87-11.87,23.83-23.77,35.73-35.67Z"/>
      <path class="cls-2" d="m222.83,2.91c-.87.86-1.65,1.65-2.43,2.43-.63.63-1.28,1.24-1.89,1.89-2.37,2.53-4.87,4.93-7.31,7.38-3.41,3.43-6.85,6.83-10.27,10.26-2.92,2.92-5.8,5.87-8.75,8.75-1.56,1.52-5,4.8-5.14,4.84,0,0,0-3.51,0-5.11,0-9.99,0-30.44,0-30.44,11.61.01,35.54,0,35.8,0Z"/>
      <path class="cls-3" d="m232.78,4.24c.98.07,2.03.19,3.08.4,1.34.27,2.6.76,3.86,1.26.67.26,1.09.7,1.35,1.39.5,1.31.95,2.63,1.18,4,.21,1.29.32,2.59.16,3.9-.19,1.65-.57,3.26-1.22,4.8-.94,2.23-2.28,4.19-3.9,5.97-1.82,1.99-3.85,3.74-6.14,5.17-.27.17-.36.19-.44-.17-.35-1.47-1.05-2.77-2.1-3.85-.76-.78-1.69-1.07-2.82-.91-1.53.21-2.73,1.02-3.88,1.93-.7.55-19.38,18.25-19.72,18.54-.48.41-.58.88-.34,1.47.18.46.26.95.28,1.45.04,1.06-.3,1.99-.9,2.85-.69.98-1.56,1.78-2.47,2.56-1.07.91-2.24,1.68-3.45,2.39-.25.15-.38.1-.55-.08-1.12-1.15-2.24-2.29-3.35-3.44-1.13-1.17-2.24-2.36-3.37-3.52-.24-.25-.29-.42-.07-.73.79-1.16,1.6-2.28,2.53-3.33.92-1.03,1.9-1.95,3.12-2.6.88-.47,1.8-.63,2.82-.39.6.14,1.14.39,1.72.56.31.09.57.07.77-.15.43-.47,17.76-17.57,18.69-18.53.97-1.01,1.87-2.09,2.43-3.4.54-1.27.71-2.54-.17-3.73-.54-.73-1.31-1.22-2.08-1.71-.63-.4-1.33-.65-2.04-.85-.29-.09-.27-.2-.14-.39.46-.66.89-1.35,1.41-1.97.74-.89,1.5-1.78,2.34-2.58,1.98-1.9,4.13-3.6,6.66-4.73,1.39-.62,2.83-1.09,4.35-1.31.78-.11,1.55-.22,2.42-.25Zm-37.26,39.42c-.49-.02-.92-.02-1.34.17-.95.42-1.75,1.04-2.5,1.75-1.29,1.23-2.36,2.63-3.33,4.12-.13.21-.09.28.04.42.63.67,1.29,1.29,1.92,1.97,1.48,1.59,3.01,3.15,4.52,4.72.17.18.31.19.53.05,1.86-1.15,3.65-2.39,5.07-4.09.48-.57.85-1.18,1.1-1.87.35-.97.09-1.89-.19-2.81-.19-.62-.22-1.17.37-1.63.47-.37.88-.82,1.31-1.23,1.25-1.21,2.48-2.43,3.77-3.6.92-.84,1.75-1.77,2.69-2.59.55-.49,1.07-1.01,1.58-1.54.4-.41.8-.84,1.22-1.21.57-.5,1.12-1.03,1.64-1.57.71-.74,1.5-1.39,2.2-2.14,1.16-1.24,2.51-2.3,3.65-3.57.21-.23.48-.41.69-.64.79-.9,1.58-1.81,2.35-2.72.65-.77,1.32-1.54,1.92-2.35.88-1.19,1.82-2.35,2.6-3.61.08-.13.14-.34-.03-.5-.22-.2-.56.04-.7.14-.94.64-1.89,1.26-2.81,1.93-.86.62-1.71,1.24-2.52,1.93-.83.72-1.74,1.33-2.54,2.08-.46.43-.97.79-1.42,1.23-1.03.99-2.01,2.02-3.05,2.99-.94.87-1.79,1.83-2.74,2.69-.84.77-1.67,1.56-2.49,2.36-.61.59-1.21,1.21-1.84,1.78-.69.63-1.34,1.31-2.03,1.94-1.28,1.16-2.49,2.4-3.73,3.61-.68.66-1.37,1.29-2.03,1.96-.56.57-1.13.64-1.84.29-.64-.32-1.33-.51-2.02-.43Z"/>
      <path class="cls-3" d="m216.56,28.2c.49-.53,1.05-.99,1.56-1.5.69-.69,1.47-1.27,2.23-1.89.64-.52,1.27-1.07,1.92-1.57.58-.45,1.18-.87,1.78-1.29.07-.05.36-.29.53-.12.11.11,0,.35-.06.44-.23.34-.43.61-.68.94-.42.56-.86,1.1-1.28,1.65-.44.57-.92,1.11-1.41,1.64-.92.98-1.8,2-2.79,2.91-.43.4-1.69,1.73-2.49.73-.46-.58.29-1.5.7-1.94Zm.1.91c.04.27.17.49.48.47.29-.02.52-.19.51-.5,0-.31-.21-.48-.53-.47-.32,0-.43.21-.46.51Zm2.2-2.16c-.33-.03-.45.19-.45.46,0,.27.17.44.46.45.35.01.5-.21.51-.5.01-.32-.22-.43-.52-.42Z"/>
      <path class="cls-3" d="m196.82,52.64c-.26.21-.52.43-.77.66-.2.19-.35.2-.55,0-1.22-1.24-2.46-2.46-3.68-3.7-.07-.07-.25-.14-.09-.29.62-.59,1.12-1.3,1.8-1.83,1.08-.83,3.2-.52,4.06.69,1.48,2.35.04,3.8-.78,4.47Zm1.04-2.63c-.06-.24-.12-.49-.19-.73-.45-1.61-2.4-2.22-3.76-1.48-.63.34-1,.98-1.52,1.44-.15.13-.05.24.05.34.26.26.54.5.78.78.71.84,1.55,1.55,2.29,2.35.17.18.35.27.57,0,.14-.18.38-.28.57-.43.71-.59,1.19-1.3,1.22-2.27Z"/>
    </g>
  </g>
</svg>