<svg width="556" height="142" viewBox="0 0 556 142" fill="none" xmlns="http://www.w3.org/2000/svg">
<g clip-path="url(#clip0_46_98)">
<path d="M87.4108 59.3224H111.622L115.887 70.0208H138.077L110.247 8.62402H89.1462L61.3156 70.0208H83.1357L87.4002 59.3224H87.4108ZM93.3473 44.4124L99.506 28.9521L105.665 44.4124H93.3367H93.3473Z" fill="black"/>
<path d="M140.797 61.4496C143.845 64.2009 147.453 66.3173 151.612 67.7988C155.771 69.2803 160.289 70.0316 165.167 70.0316C171.157 70.0316 176.458 69.0052 181.072 66.9628C185.697 64.9205 189.517 62.021 192.532 58.2644L179.548 47.0792C177.749 49.2697 175.76 50.9628 173.58 52.1692C171.4 53.3755 168.945 53.9787 166.215 53.9787C164.067 53.9787 162.12 53.6401 160.374 52.9734C158.628 52.2962 157.136 51.3226 155.887 50.0316C154.638 48.7406 153.665 47.1851 152.966 45.365C152.268 43.5448 151.919 41.5131 151.919 39.2697C151.919 37.0263 152.268 34.9946 152.966 33.1745C153.665 31.3544 154.638 29.7988 155.887 28.5078C157.136 27.2168 158.638 26.2327 160.374 25.566C162.12 24.8888 164.067 24.5607 166.215 24.5607C168.945 24.5607 171.4 25.1639 173.58 26.3702C175.76 27.5766 177.749 29.2697 179.548 31.4602L192.532 20.275C189.506 16.4655 185.686 13.5448 181.072 11.5343C176.448 9.5131 171.146 8.50781 165.167 8.50781C160.289 8.50781 155.771 9.24855 151.612 10.7406C147.453 12.2221 143.855 14.3385 140.797 17.0898C137.749 19.8411 135.379 23.0898 133.697 26.8464C132.014 30.6031 131.167 34.7512 131.167 39.2909C131.167 43.8306 132.014 47.9787 133.697 51.7353C135.379 55.4919 137.749 58.7406 140.797 61.4919V61.4496Z" fill="black"/>
<path d="M197.57 62.7934C200.617 65.5447 204.226 67.6611 208.384 69.1426C212.543 70.624 217.062 71.3754 221.94 71.3754C227.929 71.3754 233.231 70.3489 237.845 68.3066C242.469 66.2643 246.289 63.3648 249.305 59.6082L236.321 48.423C234.522 50.6135 232.532 52.3066 230.353 53.5129C228.173 54.7193 225.718 55.3225 222.988 55.3225C220.839 55.3225 218.892 54.9838 217.146 54.3172C215.4 53.6399 213.908 52.6664 212.659 51.3754C211.411 50.0844 210.437 48.5288 209.739 46.7087C209.04 44.8886 208.691 42.8569 208.691 40.6135C208.691 38.3701 209.04 36.3383 209.739 34.5182C210.437 32.6981 211.411 31.1426 212.659 29.8516C213.908 28.5606 215.411 27.5764 217.146 26.9098C218.892 26.2325 220.839 25.9045 222.988 25.9045C225.718 25.9045 228.173 26.5076 230.353 27.714C232.532 28.9203 234.522 30.6135 236.321 32.8039L249.305 21.6188C246.279 17.8092 242.458 14.8886 237.845 12.878C233.22 10.8569 227.919 9.85156 221.94 9.85156C217.062 9.85156 212.543 10.5923 208.384 12.0844C204.226 13.5658 200.628 15.6823 197.57 18.4336C194.522 21.1849 192.152 24.4336 190.469 28.1902C188.786 31.9468 187.94 36.0949 187.94 40.6346C187.94 45.1743 188.786 49.3225 190.469 53.0791C192.152 56.8357 194.522 60.0844 197.57 62.8357V62.7934Z" fill="black"/>
<path d="M271.04 11.1641H250.469V70.0212H271.04V11.1641Z" fill="black"/>
<path d="M331.22 62.6667C334.3 59.8942 336.702 56.6244 338.416 52.8678C340.13 49.1112 340.987 45.0159 340.987 40.5926C340.987 36.1694 340.13 32 338.416 28.2752C336.702 24.5503 334.3 21.2911 331.22 18.5186C328.141 15.7461 324.511 13.5979 320.321 12.0847C316.141 10.5715 311.548 9.80957 306.543 9.80957C301.538 9.80957 297.03 10.5715 292.808 12.0847C288.596 13.5979 284.945 15.7461 281.866 18.5186C278.786 21.2911 276.384 24.5397 274.67 28.2752C272.956 32 272.099 36.1059 272.099 40.5926C272.099 45.0794 272.956 49.1112 274.67 52.8678C276.384 56.6244 278.776 59.8942 281.866 62.6667C284.945 65.4392 288.596 67.5874 292.808 69.1006C297.019 70.6138 301.622 71.3757 306.628 71.3757C311.633 71.3757 316.13 70.6138 320.31 69.1006C324.49 67.5874 328.13 65.4392 331.21 62.6667H331.22ZM319.189 46.7725C318.49 48.5926 317.517 50.1376 316.268 51.3969C315.019 52.6561 313.57 53.6297 311.908 54.2963C310.247 54.9736 308.469 55.3016 306.543 55.3016C304.617 55.3016 302.839 54.963 301.178 54.2963C299.517 53.6191 298.067 52.6561 296.818 51.3969C295.57 50.1376 294.596 48.5926 293.898 46.7725C293.199 44.9524 292.85 42.8889 292.85 40.5926C292.85 38.2963 293.199 36.2329 293.898 34.4127C294.596 32.5926 295.57 31.0477 296.818 29.7884C298.067 28.5291 299.517 27.5556 301.178 26.8889C302.839 26.2117 304.617 25.8836 306.543 25.8836C308.469 25.8836 310.247 26.2223 311.908 26.8889C313.57 27.5662 315.019 28.5291 316.268 29.7884C317.517 31.0477 318.49 32.5926 319.189 34.4127C319.887 36.2329 320.236 38.2963 320.236 40.5926C320.236 42.8889 319.887 44.9524 319.189 46.7725Z" fill="black"/>
<path d="M364.913 43.2593L388.109 70.0212H405.019V11.1641H384.966V37.926L361.781 11.1641H344.871V70.0212H364.913V43.2593Z" fill="black"/>
<path d="M48.7547 79.1537C44.7441 77.3653 39.9928 76.4658 34.5007 76.4658H6.16211V135.323H26.0034V120.857H34.5007C39.9928 120.857 44.7441 119.947 48.7547 118.127C52.7653 116.307 55.8552 113.746 58.0457 110.434C60.2362 107.122 61.3261 103.207 61.3261 98.6669C61.3261 94.1272 60.2362 90.1907 58.0457 86.8574C55.8552 83.524 52.7653 80.9632 48.7547 79.1642V79.1537ZM39.3367 103.704C38.014 104.942 35.9822 105.556 33.2415 105.556H26.014V91.7674H33.2415C35.9822 91.7674 38.0245 92.3812 39.3367 93.6193C40.6489 94.8574 41.3156 96.5399 41.3156 98.6669C41.3156 100.794 40.6595 102.476 39.3367 103.714V103.704Z" fill="black"/>
<path d="M118.331 82.8037C115.358 80.0312 111.855 77.8831 107.823 76.3699C103.792 74.8566 99.3579 74.0947 94.5325 74.0947C89.7071 74.0947 85.3579 74.8566 81.2838 76.3699C77.2203 77.8831 73.6965 80.0312 70.7335 82.8037C67.76 85.5762 65.4531 88.8355 63.7917 92.5603C62.1409 96.2852 61.3156 100.391 61.3156 104.878C61.3156 109.365 62.1409 113.396 63.7917 117.153C65.4425 120.91 67.76 124.179 70.7335 126.952C73.7071 129.724 77.2203 131.873 81.2838 133.386C85.3473 134.899 89.7917 135.661 94.6171 135.661C99.4425 135.661 103.781 134.899 107.823 133.386C111.855 131.873 115.358 129.724 118.331 126.952C121.305 124.179 123.612 120.91 125.273 117.153C126.924 113.396 127.749 109.301 127.749 104.878C127.749 100.455 126.924 96.2852 125.273 92.5603C123.622 88.8355 121.305 85.5762 118.331 82.8037ZM106.723 111.058C106.046 112.878 105.114 114.423 103.908 115.682C102.702 116.941 101.305 117.915 99.7071 118.582C98.1092 119.259 96.3843 119.587 94.5325 119.587C92.6806 119.587 90.9558 119.248 89.3579 118.582C87.76 117.904 86.3632 116.941 85.1568 115.682C83.9505 114.423 83.0087 112.878 82.342 111.058C81.6648 109.238 81.3367 107.174 81.3367 104.878C81.3367 102.582 81.6753 100.518 82.342 98.6979C83.0193 96.8778 83.9505 95.3328 85.1568 94.0736C86.3632 92.8143 87.76 91.8408 89.3579 91.1741C90.9558 90.4969 92.6806 90.1688 94.5325 90.1688C96.3843 90.1688 98.1092 90.5074 99.7071 91.1741C101.305 91.8513 102.702 92.8143 103.908 94.0736C105.114 95.3328 106.056 96.8778 106.723 98.6979C107.4 100.518 107.728 102.582 107.728 104.878C107.728 107.174 107.39 109.238 106.723 111.058Z" fill="black"/>
<path d="M170.342 79.1537C166.331 77.3653 161.58 76.4658 156.088 76.4658H127.749V135.323H147.591V120.857H156.088C161.58 120.857 166.331 119.947 170.342 118.127C174.353 116.307 177.443 113.746 179.633 110.434C181.823 107.122 182.913 103.207 182.913 98.6669C182.913 94.1272 181.823 90.1907 179.633 86.8574C177.443 83.524 174.353 80.9632 170.342 79.1642V79.1537ZM160.924 103.704C159.601 104.942 157.57 105.556 154.829 105.556H147.601V91.7674H154.829C157.57 91.7674 159.612 92.3812 160.924 93.6193C162.236 94.8574 162.903 96.5399 162.903 98.6669C162.903 100.794 162.247 102.476 160.924 103.714V103.704Z" fill="black"/>
<path d="M220.755 107.238C220.755 111.724 219.95 114.899 218.363 116.783C216.765 118.666 214.564 119.597 211.76 119.597C208.956 119.597 206.829 118.656 205.199 116.783C203.57 114.91 202.765 111.724 202.765 107.238V75.4492H182.924V107.82C182.924 116.624 185.443 123.46 190.49 128.338C195.538 133.216 202.575 135.65 211.601 135.65C220.628 135.65 227.665 133.206 232.712 128.338C237.76 123.46 240.279 116.624 240.279 107.82V75.4492H220.776V107.238H220.755Z" fill="black"/>
<path d="M261.167 75.4492H241.326V134.306H287.739V118.92H261.167V75.4492Z" fill="black"/>
<path d="M300.786 75.4492L275.051 134.306H295.231L299.178 124.052H321.559L325.506 134.306H346.025L320.289 75.4492H300.776H300.786ZM304.67 109.756L310.363 94.9307L316.056 109.756H304.659H304.67Z" fill="black"/>
<path d="M383.834 134.645H405.019L392.67 116.54C395.972 114.857 398.575 112.571 400.48 109.714C402.67 106.434 403.76 102.529 403.76 97.9893C403.76 93.4496 402.67 89.5131 400.48 86.1798C398.289 82.8465 395.199 80.2856 391.189 78.4867C387.178 76.6983 382.427 75.7988 376.935 75.7988H348.596V134.656H368.437V119.852H373.845L383.823 134.656L383.834 134.645ZM381.771 92.9417C383.083 94.1798 383.749 95.8623 383.749 97.9893C383.749 100.116 383.093 101.799 381.771 103.037C380.448 104.275 378.416 104.889 375.675 104.889H368.448V91.1004H375.675C378.416 91.1004 380.458 91.7142 381.771 92.9523V92.9417Z" fill="black"/>
</g>
<path d="M536 56.8613C536 58.0307 536 58.9765 536 60.0137C536 84.1037 536 108.194 536 132.284C536 132.874 536 133.23 535.198 133.23C510.27 133.199 485.353 133.199 460.425 133.199C460.141 133.199 459.846 133.199 459.674 133.199C485.038 107.777 510.575 82.3445 536 56.8613Z" fill="#DE1A22"/>
<path d="M490.509 11.0508C488.662 12.9016 486.987 14.5591 485.322 16.2268C483.972 17.5691 482.592 18.8809 481.283 20.274C476.228 25.694 470.879 30.8191 465.652 36.0764C458.365 43.4184 451.016 50.7094 443.698 58.031C437.466 64.2747 431.305 70.5998 424.992 76.7621C421.663 80.0161 414.335 87.0326 414.041 87.1242C414.041 87.1242 414.041 86.6971 414.041 86.4734C414.02 83.0363 414 79.6094 414 76.1723C414 54.777 414.02 33.3817 414.01 11.9864C414.01 11.2542 414.122 11 414.944 11C439.76 11.0305 464.566 11.0305 489.382 11.0305C489.666 11.0305 489.961 11.0305 490.499 11.0305L490.509 11.0508Z" fill="#DE1A22"/>
<path d="M511.773 13.8578C513.863 14.0104 516.106 14.2544 518.35 14.712C521.222 15.3018 523.912 16.3289 526.601 17.4068C528.022 17.9762 528.936 18.9118 529.494 20.3761C530.56 23.1725 531.534 25.9995 532.011 28.9484C532.458 31.7042 532.691 34.5006 532.356 37.2869C531.94 40.8257 531.138 44.2729 529.748 47.5676C527.738 52.3368 524.886 56.5467 521.415 60.3397C517.527 64.6005 513.193 68.3528 508.291 71.4136C507.723 71.7695 507.53 71.8204 507.347 71.0577C506.606 67.9054 505.104 65.1191 502.851 62.8108C501.217 61.1329 499.238 60.5329 496.822 60.8685C493.554 61.3261 490.996 63.0548 488.519 64.9971C487.017 66.1665 447.108 104.066 446.388 104.686C445.363 105.571 445.15 106.557 445.657 107.839C446.043 108.815 446.215 109.872 446.256 110.94C446.347 113.208 445.606 115.211 444.327 117.031C442.846 119.126 440.988 120.845 439.039 122.502C436.746 124.454 434.259 126.102 431.661 127.607C431.123 127.922 430.849 127.82 430.483 127.444C428.098 124.983 425.692 122.553 423.328 120.082C420.912 117.58 418.537 115.038 416.121 112.537C415.604 111.998 415.512 111.642 415.969 110.971C417.654 108.5 419.39 106.079 421.389 103.842C423.348 101.646 425.449 99.6526 428.057 98.2798C429.945 97.2832 431.904 96.9273 434.086 97.4459C435.365 97.751 436.522 98.2798 437.761 98.6459C438.43 98.8492 438.978 98.7984 439.415 98.3205C440.328 97.3036 477.375 60.716 479.344 58.6415C481.415 56.4756 483.343 54.1672 484.541 51.3606C485.698 48.6455 486.073 45.9101 484.175 43.3882C483.018 41.8324 481.364 40.7748 479.73 39.7376C478.38 38.8732 476.888 38.3546 475.376 37.9072C474.746 37.7242 474.797 37.4699 475.081 37.0734C476.076 35.6599 476.989 34.1752 478.086 32.8533C479.669 30.9415 481.293 29.04 483.079 27.3214C487.312 23.2437 491.899 19.6134 497.319 17.1932C500.293 15.8713 503.369 14.8544 506.627 14.3866C508.281 14.1527 509.935 13.9087 511.793 13.8477L511.773 13.8578ZM432.158 98.2595C431.123 98.2188 430.179 98.2289 429.286 98.6255C427.266 99.5306 425.54 100.863 423.947 102.378C421.186 105.001 418.902 108.011 416.832 111.204C416.548 111.642 416.629 111.794 416.923 112.109C418.263 113.533 419.684 114.886 421.024 116.319C424.19 119.736 427.459 123.051 430.676 126.417C431.041 126.793 431.336 126.824 431.803 126.529C435.791 124.068 439.598 121.424 442.643 117.784C443.658 116.563 444.459 115.262 444.997 113.787C445.759 111.723 445.19 109.74 444.581 107.767C444.175 106.445 444.104 105.266 445.363 104.269C446.368 103.476 447.24 102.52 448.164 101.625C450.833 99.0425 453.462 96.4189 456.213 93.9173C458.182 92.1276 459.958 90.1345 461.958 88.3651C463.135 87.3177 464.241 86.1992 465.327 85.0704C466.18 84.1857 467.032 83.2807 467.936 82.4774C469.154 81.3995 470.341 80.2707 471.437 79.1115C472.95 77.5251 474.635 76.132 476.137 74.5253C478.623 71.8712 481.496 69.5934 483.932 66.8783C484.378 66.38 484.957 66.0038 485.393 65.4954C487.088 63.5633 488.773 61.621 490.428 59.6584C491.818 58.0009 493.239 56.3637 494.518 54.6248C496.396 52.0724 498.405 49.6014 500.07 46.8863C500.242 46.6016 500.374 46.1542 499.999 45.8084C499.532 45.3813 498.811 45.8898 498.497 46.1135C496.497 47.4863 494.457 48.8184 492.478 50.242C490.641 51.564 488.814 52.8859 487.098 54.3706C485.332 55.9061 483.374 57.2281 481.668 58.8246C480.694 59.7499 479.608 60.5228 478.644 61.4481C476.441 63.5633 474.35 65.7801 472.117 67.8545C470.118 69.7154 468.281 71.7594 466.271 73.6101C464.475 75.2676 462.709 76.9557 460.963 78.6539C459.654 79.925 458.375 81.2469 457.035 82.4774C455.553 83.8298 454.173 85.284 452.691 86.6364C449.961 89.1278 447.383 91.7819 444.723 94.3546C443.282 95.7579 441.79 97.1104 440.379 98.5442C439.192 99.7543 437.964 99.9271 436.451 99.1543C435.091 98.4628 433.609 98.0662 432.127 98.2391L432.158 98.2595Z" fill="#010101"/>
<path d="M477.111 65.159C478.167 64.0302 479.364 63.0337 480.45 61.9355C481.922 60.4508 483.597 59.2102 485.211 57.8984C486.581 56.7798 487.921 55.6206 489.321 54.5223C490.56 53.5563 491.849 52.6716 493.117 51.7564C493.27 51.6446 493.889 51.1463 494.264 51.5022C494.508 51.7361 494.264 52.2547 494.132 52.4479C493.635 53.1801 493.209 53.7495 492.671 54.4613C491.777 55.6511 490.834 56.8103 489.93 57.9899C488.996 59.2 487.971 60.3694 486.906 61.5084C484.937 63.6031 483.049 65.7895 480.948 67.7419C480.024 68.6062 477.324 71.4535 475.629 69.3079C474.635 68.0774 476.238 66.0945 477.131 65.1488L477.111 65.159ZM477.314 67.1114C477.405 67.691 477.679 68.169 478.349 68.1181C478.969 68.0775 479.456 67.7012 479.435 67.0402C479.415 66.3792 478.979 66.0132 478.288 66.0233C477.598 66.0233 477.365 66.4708 477.314 67.1114ZM482.013 62.4846C481.313 62.4236 481.049 62.8913 481.059 63.4811C481.059 64.0607 481.415 64.4167 482.054 64.437C482.805 64.4675 483.11 63.9896 483.14 63.3693C483.171 62.6879 482.673 62.4541 482.024 62.4846H482.013Z" fill="#010101"/>
<path d="M434.929 117.478C434.371 117.935 433.812 118.393 433.295 118.891C432.868 119.298 432.554 119.318 432.127 118.891C429.509 116.247 426.88 113.613 424.261 110.969C424.109 110.817 423.734 110.675 424.058 110.349C425.378 109.078 426.444 107.573 427.915 106.434C430.229 104.655 434.746 105.326 436.603 107.909C439.76 112.942 436.695 116.044 434.939 117.467L434.929 117.478ZM437.152 111.834C437.02 111.315 436.898 110.786 436.746 110.278C435.771 106.821 431.63 105.519 428.717 107.105C427.367 107.837 426.575 109.19 425.459 110.197C425.144 110.481 425.337 110.705 425.561 110.929C426.119 111.488 426.718 112.007 427.225 112.607C428.748 114.396 430.544 115.922 432.127 117.65C432.493 118.047 432.878 118.22 433.335 117.63C433.64 117.244 434.157 117.03 434.543 116.705C436.055 115.444 437.091 113.918 437.141 111.844L437.152 111.834Z" fill="#010101"/>
<defs>
<clipPath id="clip0_46_98">
<rect width="554.899" height="141.587" fill="white" transform="translate(0.162109)"/>
</clipPath>
</defs>
</svg>
