<svg width="552" height="217" viewBox="0 0 552 217" fill="none" xmlns="http://www.w3.org/2000/svg">
<path d="M223.36 212.07V215.91C223.36 215.91 277.6 202.11 364.01 214.86C364.01 214.86 300.22 197.55 223.36 212.07Z" fill="black"/>
<path d="M75.6785 78.1677H97.6904L101.564 87.9107H121.743L96.4427 31.9907H77.2574L51.9568 87.9107H71.8045L75.6785 78.1677ZM81.0852 64.583L86.6922 50.497L92.2991 64.583H81.0929H81.0852Z" fill="black"/>
<path d="M124.223 80.1039C126.996 82.6033 130.277 84.5319 134.051 85.8896C137.833 87.2395 141.938 87.9184 146.382 87.9184C151.827 87.9184 156.648 86.985 160.846 85.1259C165.051 83.259 168.524 80.6208 171.266 77.1957L159.452 67.0053C157.811 68.9955 156.001 70.5384 154.022 71.6415C152.042 72.7369 149.809 73.2846 147.321 73.2846C145.365 73.2846 143.594 72.976 142.007 72.3666C140.42 71.7572 139.057 70.8624 137.925 69.6898C136.785 68.5172 135.907 67.0978 135.268 65.4393C134.636 63.7808 134.313 61.9293 134.313 59.8851C134.313 57.8408 134.629 55.9894 135.268 54.3309C135.899 52.6723 136.785 51.2529 137.925 50.0804C139.065 48.9078 140.42 48.013 142.007 47.4036C143.594 46.7941 145.365 46.4856 147.321 46.4856C149.801 46.4856 152.035 47.0333 154.022 48.1287C156.001 49.2241 157.811 50.7747 159.452 52.7649L171.266 42.5822C168.517 39.1108 165.043 36.4572 160.846 34.6135C156.648 32.7698 151.819 31.8595 146.382 31.8595C141.945 31.8595 137.833 32.5384 134.051 33.8883C130.269 35.2383 126.996 37.1669 124.223 39.674C121.451 42.1734 119.294 45.1356 117.761 48.5607C116.229 51.9858 115.459 55.758 115.459 59.8928C115.459 64.0276 116.221 67.8075 117.761 71.2249C119.294 74.6423 121.451 77.6045 124.223 80.1116V80.1039Z" fill="black"/>
<path d="M175.849 81.3305C178.622 83.8299 181.903 85.7584 185.676 87.1161C189.458 88.4661 193.563 89.1449 198.007 89.1449C203.452 89.1449 208.274 88.2115 212.471 86.3524C216.676 84.4856 220.15 81.8473 222.892 78.4223L211.077 68.2318C209.437 70.2221 207.627 71.7649 205.647 72.868C203.668 73.9635 201.434 74.5112 198.947 74.5112C196.99 74.5112 195.219 74.2026 193.632 73.5932C192.046 72.9838 190.683 72.0889 189.55 70.9164C188.411 69.7438 187.533 68.3244 186.893 66.6659C186.262 65.0073 185.938 63.1559 185.938 61.1117C185.938 59.0674 186.254 57.216 186.893 55.5575C187.525 53.8989 188.411 52.4795 189.55 51.3069C190.69 50.1344 192.046 49.2395 193.632 48.6301C195.219 48.0207 196.99 47.7121 198.947 47.7121C201.427 47.7121 203.66 48.2598 205.647 49.3553C207.627 50.4507 209.437 52.0012 211.077 53.9915L222.892 43.8088C220.142 40.3374 216.669 37.6837 212.471 35.84C208.274 33.9963 203.445 33.0861 198.007 33.0861C193.571 33.0861 189.458 33.7649 185.676 35.1149C181.895 36.4649 178.622 38.3934 175.849 40.9005C173.076 43.3999 170.92 46.3622 169.387 49.7873C167.854 53.2123 167.084 56.9846 167.084 61.1194C167.084 65.2542 167.847 69.0341 169.387 72.4515C170.92 75.8689 173.076 78.8311 175.849 81.3382V81.3305Z" fill="black"/>
<path d="M242.663 34.3049H223.955V87.9184H242.663V34.3049Z" fill="black"/>
<path d="M297.384 81.2148C300.188 78.6845 302.367 75.7146 303.923 72.2895C305.479 68.8721 306.264 65.1385 306.264 61.1117C306.264 57.0849 305.487 53.2895 303.923 49.8953C302.367 46.501 300.18 43.5388 297.384 41.0085C294.581 38.4783 291.277 36.5266 287.472 35.1535C283.667 33.7804 279.493 33.0861 274.949 33.0861C270.405 33.0861 266.292 33.7726 262.464 35.1535C258.628 36.5343 255.317 38.486 252.513 41.0085C249.71 43.5388 247.53 46.501 245.974 49.8953C244.419 53.2895 243.633 57.0309 243.633 61.1117C243.633 65.1925 244.411 68.8721 245.974 72.2895C247.53 75.7146 249.71 78.6845 252.513 81.2148C255.317 83.745 258.628 85.6967 262.464 87.0698C266.292 88.4507 270.482 89.1372 275.026 89.1372C279.57 89.1372 283.667 88.4507 287.472 87.0698C291.277 85.689 294.581 83.7373 297.384 81.2148ZM286.448 66.743C285.816 68.4015 284.93 69.8055 283.79 70.9549C282.651 72.1044 281.334 72.9838 279.824 73.6009C278.314 74.2103 276.689 74.5189 274.949 74.5189C273.208 74.5189 271.583 74.2103 270.073 73.6009C268.564 72.9915 267.247 72.1044 266.107 70.9549C264.967 69.8055 264.089 68.4015 263.45 66.743C262.818 65.0844 262.495 63.2099 262.495 61.1117C262.495 59.0134 262.811 57.1389 263.45 55.4803C264.081 53.8218 264.967 52.4178 266.107 51.2684C267.247 50.119 268.564 49.2395 270.073 48.6301C271.583 48.0207 273.208 47.7121 274.949 47.7121C276.689 47.7121 278.314 48.0207 279.824 48.6301C281.334 49.2395 282.651 50.1267 283.79 51.2684C284.93 52.4178 285.808 53.8218 286.448 55.4803C287.079 57.1389 287.403 59.0134 287.403 61.1117C287.403 63.2099 287.087 65.0844 286.448 66.743Z" fill="black"/>
<path d="M328.03 63.5416L349.118 87.9184H364.498V34.3049H346.268V58.6817L325.18 34.3049H309.8V87.9184H328.03V63.5416Z" fill="black"/>
<path d="M40.5272 96.2265C36.8842 94.5911 32.5635 93.7734 27.565 93.7734H1.79456V147.387H19.84V134.211H27.565C32.5635 134.211 36.8765 133.378 40.5272 131.719C44.1702 130.061 46.9891 127.723 48.9761 124.715C50.9632 121.699 51.9568 118.127 51.9568 113.992C51.9568 109.857 50.9632 106.27 48.9761 103.231C46.9891 100.192 44.1702 97.8619 40.5272 96.2265ZM31.9627 118.59C30.7612 119.716 28.9128 120.272 26.4174 120.272H19.84V107.713H26.4174C28.9128 107.713 30.7612 108.276 31.9627 109.395C33.1565 110.521 33.7573 112.048 33.7573 113.992C33.7573 115.936 33.1565 117.464 31.9627 118.59Z" fill="black"/>
<path d="M103.798 99.5591C101.095 97.0288 97.9137 95.0771 94.2399 93.704C90.5662 92.3309 86.5458 91.6366 82.1557 91.6366C77.7657 91.6366 73.8069 92.3232 70.11 93.704C66.4131 95.0848 63.2169 97.0365 60.5135 99.5591C57.8102 102.089 55.7075 105.052 54.2057 108.446C52.7038 111.84 51.949 115.581 51.949 119.662C51.949 123.743 52.7038 127.423 54.2057 130.848C55.7075 134.265 57.8102 137.243 60.5135 139.773C63.2169 142.303 66.4131 144.255 70.11 145.636C73.8069 147.017 77.8427 147.703 82.2327 147.703C86.6228 147.703 90.5662 147.017 94.2399 145.636C97.9137 144.255 101.095 142.303 103.798 139.773C106.501 137.243 108.604 134.273 110.106 130.848C111.608 127.43 112.362 123.697 112.362 119.662C112.362 115.628 111.608 111.84 110.106 108.446C108.604 105.052 106.501 102.089 103.798 99.5591ZM93.2464 125.294C92.638 126.952 91.7831 128.356 90.6817 129.505C89.588 130.655 88.3095 131.534 86.8616 132.144C85.4136 132.753 83.8424 133.062 82.1557 133.062C80.469 133.062 78.9055 132.753 77.4499 132.144C75.9942 131.534 74.7234 130.647 73.6298 129.505C72.5361 128.356 71.6812 126.952 71.0651 125.294C70.4566 123.635 70.1485 121.76 70.1485 119.662C70.1485 117.564 70.4566 115.689 71.0651 114.031C71.6735 112.372 72.5284 110.968 73.6298 109.819C74.7234 108.67 76.0019 107.79 77.4499 107.181C78.9055 106.571 80.469 106.263 82.1557 106.263C83.8424 106.263 85.4059 106.571 86.8616 107.181C88.3172 107.79 89.588 108.677 90.6817 109.819C91.7754 110.968 92.6303 112.372 93.2464 114.031C93.8549 115.689 94.1629 117.564 94.1629 119.662C94.1629 121.76 93.8549 123.635 93.2464 125.294Z" fill="black"/>
<path d="M151.095 96.2265C147.452 94.5911 143.131 93.7734 138.133 93.7734H112.362V147.387H130.408V134.211H138.133C143.131 134.211 147.444 133.378 151.095 131.719C154.738 130.061 157.557 127.723 159.544 124.715C161.531 121.699 162.525 118.127 162.525 113.992C162.525 109.857 161.531 106.27 159.544 103.231C157.557 100.192 154.738 97.8619 151.095 96.2265ZM142.531 118.59C141.329 119.716 139.481 120.272 136.985 120.272H130.408V107.713H136.985C139.481 107.713 141.329 108.276 142.531 109.395C143.724 110.521 144.325 112.048 144.325 113.992C144.325 115.936 143.724 117.464 142.531 118.59Z" fill="black"/>
<path d="M196.937 121.807C196.937 125.895 196.213 128.788 194.757 130.501C193.301 132.213 191.306 133.069 188.757 133.069C186.208 133.069 184.267 132.213 182.796 130.501C181.317 128.788 180.578 125.895 180.578 121.807V92.8555H162.532V122.339C162.532 130.354 164.828 136.587 169.418 141.023C174.008 145.466 180.401 147.688 188.611 147.688C196.821 147.688 203.214 145.466 207.804 141.023C212.394 136.579 214.689 130.354 214.689 122.339V92.8555H196.952V121.807H196.937Z" fill="black"/>
<path d="M233.69 92.8555H215.644V146.469H257.851V132.452H233.69V92.8555Z" fill="black"/>
<path d="M269.711 92.8555L246.313 146.469H264.667L268.256 137.127H288.612L292.201 146.469H310.855L287.457 92.8555H269.719H269.711ZM273.247 124.106L278.43 110.606L283.613 124.106H273.247Z" fill="black"/>
<path d="M345.228 146.778H364.498L353.261 130.292C356.257 128.757 358.629 126.682 360.362 124.075C362.349 121.089 363.343 117.525 363.343 113.391C363.343 109.256 362.349 105.669 360.362 102.629C358.375 99.5899 355.556 97.2602 351.913 95.6248C348.27 93.9894 343.95 93.1717 338.951 93.1717H313.181V146.785H331.226V133.309H336.14L345.22 146.785L345.228 146.778ZM343.357 108.793C344.55 109.919 345.151 111.447 345.151 113.391C345.151 115.335 344.55 116.862 343.357 117.988C342.155 119.114 340.307 119.67 337.811 119.67H331.234V107.111H337.811C340.307 107.111 342.155 107.674 343.357 108.793Z" fill="black"/>
<path d="M550.406 64.8916C550.406 66.4884 550.398 67.7844 550.398 69.1961C550.406 102.066 550.398 134.929 550.406 167.799C550.406 168.601 550.406 169.095 549.304 169.095C515.285 169.056 481.274 169.056 447.255 169.048C446.862 169.048 446.469 169.048 446.238 169.048C480.85 134.365 515.701 99.6594 550.406 64.8916Z" fill="#E51A22"/>
<path d="M488.321 2.38367C485.795 4.89849 483.515 7.17417 481.243 9.44985C479.402 11.2858 477.508 13.0755 475.736 14.9732C468.835 22.3634 461.534 29.3601 454.41 36.5343C444.459 46.555 434.431 56.4986 424.457 66.4961C415.947 75.0203 407.544 83.637 398.933 92.0532C394.389 96.4888 384.384 106.062 383.984 106.193C383.984 106.193 383.984 105.607 383.984 105.306C383.961 100.624 383.93 95.9334 383.93 91.2509C383.938 62.0605 383.961 32.8701 383.945 3.67965C383.945 2.68452 384.099 2.33739 385.216 2.33739C419.081 2.37596 452.939 2.37596 486.804 2.37596C487.197 2.37596 487.589 2.37596 488.329 2.37596L488.321 2.38367Z" fill="#E51A22"/>
<path d="M517.342 6.21762C520.199 6.4259 523.257 6.76533 526.314 7.39017C530.235 8.19245 533.901 9.59643 537.582 11.0621C539.523 11.8335 540.763 13.1064 541.525 15.1121C542.981 18.9229 544.306 22.7799 544.953 26.799C545.561 30.5558 545.877 34.3743 545.43 38.1851C544.868 43.0142 543.774 47.7121 541.872 52.2172C539.122 58.7203 535.233 64.4673 530.496 69.6512C525.19 75.4677 519.283 80.5822 512.582 84.7633C511.804 85.2493 511.542 85.311 511.296 84.2696C510.279 79.9651 508.23 76.1697 505.157 73.0146C502.931 70.7235 500.22 69.8981 496.932 70.3609C492.465 70.9858 488.976 73.354 485.602 75.9923C483.554 77.5891 429.094 129.297 428.1 130.146C426.698 131.349 426.413 132.707 427.099 134.45C427.623 135.785 427.854 137.227 427.908 138.685C428.031 141.786 427.03 144.51 425.274 147.001C423.256 149.863 420.714 152.208 418.057 154.469C414.93 157.13 411.541 159.382 407.991 161.434C407.251 161.859 406.882 161.728 406.381 161.211C403.131 157.855 399.85 154.53 396.607 151.167C393.319 147.749 390.076 144.278 386.772 140.876C386.063 140.143 385.94 139.65 386.556 138.739C388.851 135.361 391.216 132.067 393.95 129.004C396.623 126.011 399.488 123.296 403.046 121.413C405.626 120.048 408.291 119.577 411.279 120.279C413.02 120.688 414.607 121.421 416.286 121.922C417.194 122.192 417.941 122.131 418.534 121.475C419.782 120.086 470.337 70.1604 473.033 67.3447C475.859 64.3902 478.486 61.2428 480.119 57.4166C481.697 53.7061 482.206 49.9878 479.626 46.5319C478.039 44.4105 475.79 42.9679 473.564 41.5485C471.716 40.3682 469.69 39.6663 467.626 39.0491C466.771 38.7946 466.841 38.4551 467.226 37.9074C468.581 35.9789 469.829 33.9578 471.331 32.1527C473.495 29.5453 475.713 26.9533 478.147 24.6005C483.931 19.0386 490.185 14.0784 497.586 10.7844C501.653 8.97158 505.843 7.59074 510.287 6.95047C512.551 6.62647 514.808 6.30248 517.334 6.22533L517.342 6.21762ZM408.684 121.375C407.267 121.321 405.988 121.328 404.764 121.876C402.006 123.11 399.65 124.931 397.485 126.991C393.719 130.578 390.6 134.682 387.781 139.032C387.396 139.634 387.511 139.842 387.912 140.267C389.745 142.211 391.686 144.047 393.503 146.006C397.832 150.665 402.291 155.194 406.681 159.791C407.182 160.308 407.575 160.347 408.222 159.953C413.659 156.605 418.866 152.987 423.017 148.019C424.403 146.361 425.489 144.579 426.229 142.573C427.261 139.75 426.49 137.05 425.659 134.358C425.104 132.553 425.012 130.948 426.729 129.583C428.1 128.503 429.294 127.199 430.549 125.98C434.185 122.447 437.781 118.875 441.532 115.466C444.22 113.02 446.646 110.297 449.373 107.883C450.975 106.463 452.5 104.928 453.978 103.385C455.134 102.182 456.304 100.94 457.537 99.8445C459.2 98.3788 460.818 96.8283 462.32 95.2546C464.384 93.0869 466.687 91.1815 468.728 88.9984C472.124 85.3727 476.037 82.2639 479.371 78.5688C479.98 77.89 480.765 77.3731 481.366 76.6866C483.677 74.056 485.972 71.4101 488.229 68.7255C490.131 66.4653 492.064 64.2282 493.812 61.8522C496.377 58.3654 499.111 54.9943 501.383 51.2915C501.622 50.8981 501.799 50.2887 501.283 49.8258C500.644 49.2473 499.666 49.9415 499.235 50.2347C496.5 52.1092 493.72 53.9298 491.024 55.8583C488.521 57.6557 486.026 59.4685 483.692 61.4974C481.282 63.5879 478.601 65.393 476.283 67.5761C474.951 68.8335 473.472 69.8981 472.155 71.1555C469.151 74.0329 466.301 77.0646 463.244 79.8957C460.51 82.4336 458.014 85.2262 455.265 87.7487C452.808 90.0012 450.405 92.3155 448.017 94.6297C446.23 96.3654 444.49 98.1705 442.657 99.8445C440.639 101.688 438.752 103.671 436.734 105.514C433.006 108.916 429.487 112.534 425.867 116.052C423.895 117.965 421.862 119.816 419.944 121.776C418.319 123.427 416.647 123.658 414.583 122.617C412.72 121.676 410.709 121.128 408.684 121.359V121.375Z" fill="#010101"/>
<path d="M470.045 76.216C471.485 74.6809 473.11 73.3155 474.596 71.8189C476.607 69.7978 478.886 68.1007 481.089 66.311C482.961 64.7836 484.794 63.1945 486.696 61.7134C488.383 60.4019 490.139 59.1831 491.879 57.9411C492.087 57.7946 492.934 57.108 493.435 57.594C493.766 57.918 493.435 58.62 493.25 58.8823C492.565 59.8851 491.987 60.6642 491.255 61.6362C490.039 63.2639 488.752 64.8453 487.512 66.4576C486.242 68.1161 484.84 69.7052 483.392 71.2558C480.704 74.1177 478.131 77.0877 475.259 79.7645C473.996 80.9371 470.322 84.825 467.996 81.9013C466.648 80.2196 468.828 77.512 470.045 76.2237V76.216ZM470.322 78.8851C470.445 79.6797 470.815 80.3276 471.731 80.2582C472.571 80.1965 473.233 79.6951 473.21 78.7848C473.187 77.8823 472.586 77.3885 471.647 77.3963C470.699 77.404 470.391 78.0057 470.322 78.8774V78.8851ZM476.73 72.5749C475.775 72.4901 475.413 73.1226 475.42 73.9326C475.428 74.7194 475.913 75.2054 476.776 75.244C477.8 75.2826 478.224 74.6269 478.262 73.7937C478.301 72.8603 477.631 72.544 476.73 72.5826V72.5749Z" fill="#010101"/>
<path d="M412.473 147.603C411.711 148.22 410.948 148.853 410.24 149.531C409.662 150.095 409.223 150.11 408.645 149.531C405.079 145.921 401.483 142.334 397.909 138.732C397.701 138.516 397.185 138.323 397.639 137.891C399.442 136.163 400.889 134.103 402.9 132.553C406.057 130.123 412.227 131.041 414.753 134.566C419.058 141.432 414.884 145.659 412.481 147.611L412.473 147.603ZM415.508 139.904C415.323 139.194 415.153 138.477 414.961 137.775C413.636 133.062 407.975 131.287 404.001 133.44C402.16 134.443 401.074 136.286 399.557 137.659C399.133 138.045 399.395 138.354 399.703 138.662C400.466 139.418 401.282 140.136 401.975 140.953C404.047 143.399 406.496 145.474 408.661 147.834C409.154 148.367 409.693 148.613 410.317 147.811C410.725 147.279 411.433 146.993 411.965 146.546C414.029 144.818 415.446 142.751 415.508 139.912V139.904Z" fill="#010101"/>
<path d="M470.322 78.8774C470.391 78.0057 470.707 77.404 471.646 77.3963C472.578 77.3886 473.179 77.8823 473.21 78.7848C473.233 79.6874 472.571 80.1965 471.731 80.2582C470.815 80.3199 470.445 79.6797 470.322 78.8851V78.8774Z" fill="white"/>
<path d="M476.73 72.5749C477.623 72.5363 478.301 72.8526 478.262 73.786C478.224 74.6192 477.8 75.2749 476.776 75.2363C475.913 75.2054 475.436 74.7194 475.42 73.9249C475.413 73.1226 475.775 72.4823 476.73 72.5672V72.5749Z" fill="white"/>
<path d="M74.5001 188.94L75.2501 202.62H70.8101L71.5301 188.94H74.5001ZM73.0301 181.8C73.7301 181.8 74.3001 182.03 74.7401 182.49C75.1801 182.93 75.4001 183.48 75.4001 184.14C75.4001 184.76 75.1801 185.3 74.7401 185.76C74.3001 186.2 73.7301 186.42 73.0301 186.42C72.3301 186.42 71.7501 186.2 71.2901 185.76C70.8301 185.3 70.6001 184.76 70.6001 184.14C70.6001 183.48 70.8301 182.93 71.2901 182.49C71.7501 182.03 72.3301 181.8 73.0301 181.8ZM86.5097 198.3C84.8697 198.3 83.2997 198.07 81.7997 197.61C80.2997 197.13 79.1097 196.52 78.2297 195.78L79.5797 192.75C80.4197 193.41 81.4597 193.96 82.6997 194.4C83.9397 194.84 85.2097 195.06 86.5097 195.06C87.6097 195.06 88.4997 194.94 89.1797 194.7C89.8597 194.46 90.3597 194.14 90.6797 193.74C90.9997 193.32 91.1597 192.85 91.1597 192.33C91.1597 191.69 90.9297 191.18 90.4697 190.8C90.0097 190.4 89.4097 190.09 88.6697 189.87C87.9497 189.63 87.1397 189.41 86.2397 189.21C85.3597 189.01 84.4697 188.78 83.5697 188.52C82.6897 188.24 81.8797 187.89 81.1397 187.47C80.4197 187.03 79.8297 186.45 79.3697 185.73C78.9097 185.01 78.6797 184.09 78.6797 182.97C78.6797 181.83 78.9797 180.79 79.5797 179.85C80.1997 178.89 81.1297 178.13 82.3697 177.57C83.6297 176.99 85.2197 176.7 87.1397 176.7C88.3997 176.7 89.6497 176.86 90.8897 177.18C92.1297 177.5 93.2097 177.96 94.1297 178.56L92.8997 181.59C91.9597 181.03 90.9897 180.62 89.9897 180.36C88.9897 180.08 88.0297 179.94 87.1097 179.94C86.0297 179.94 85.1497 180.07 84.4697 180.33C83.8097 180.59 83.3197 180.93 82.9997 181.35C82.6997 181.77 82.5497 182.25 82.5497 182.79C82.5497 183.43 82.7697 183.95 83.2097 184.35C83.6697 184.73 84.2597 185.03 84.9797 185.25C85.7197 185.47 86.5397 185.69 87.4397 185.91C88.3397 186.11 89.2297 186.34 90.1097 186.6C91.0097 186.86 91.8197 187.2 92.5397 187.62C93.2797 188.04 93.8697 188.61 94.3097 189.33C94.7697 190.05 94.9997 190.96 94.9997 192.06C94.9997 193.18 94.6897 194.22 94.0697 195.18C93.4697 196.12 92.5397 196.88 91.2797 197.46C90.0197 198.02 88.4297 198.3 86.5097 198.3ZM98.5069 198V181.98H102.257V198H98.5069ZM100.397 179.34C99.6969 179.34 99.1169 179.12 98.6569 178.68C98.2169 178.24 97.9969 177.71 97.9969 177.09C97.9969 176.45 98.2169 175.92 98.6569 175.5C99.1169 175.06 99.6969 174.84 100.397 174.84C101.097 174.84 101.667 175.05 102.107 175.47C102.567 175.87 102.797 176.38 102.797 177C102.797 177.66 102.577 178.22 102.137 178.68C101.697 179.12 101.117 179.34 100.397 179.34ZM114.709 198.21C112.929 198.21 111.369 197.86 110.029 197.16C108.709 196.44 107.679 195.46 106.939 194.22C106.219 192.98 105.859 191.57 105.859 189.99C105.859 188.39 106.209 186.98 106.909 185.76C107.629 184.52 108.609 183.55 109.849 182.85C111.109 182.15 112.539 181.8 114.139 181.8C115.699 181.8 117.089 182.14 118.309 182.82C119.529 183.5 120.489 184.46 121.189 185.7C121.889 186.94 122.239 188.4 122.239 190.08C122.239 190.24 122.229 190.42 122.209 190.62C122.209 190.82 122.199 191.01 122.179 191.19H108.829V188.7H120.199L118.729 189.48C118.749 188.56 118.559 187.75 118.159 187.05C117.759 186.35 117.209 185.8 116.509 185.4C115.829 185 115.039 184.8 114.139 184.8C113.219 184.8 112.409 185 111.709 185.4C111.029 185.8 110.489 186.36 110.089 187.08C109.709 187.78 109.519 188.61 109.519 189.57V190.17C109.519 191.13 109.739 191.98 110.179 192.72C110.619 193.46 111.239 194.03 112.039 194.43C112.839 194.83 113.759 195.03 114.799 195.03C115.699 195.03 116.509 194.89 117.229 194.61C117.949 194.33 118.589 193.89 119.149 193.29L121.159 195.6C120.439 196.44 119.529 197.09 118.429 197.55C117.349 197.99 116.109 198.21 114.709 198.21ZM146.061 181.8C147.341 181.8 148.471 182.05 149.451 182.55C150.451 183.05 151.231 183.82 151.791 184.86C152.351 185.88 152.631 187.2 152.631 188.82V198H148.881V189.3C148.881 187.88 148.571 186.82 147.951 186.12C147.331 185.42 146.441 185.07 145.281 185.07C144.461 185.07 143.731 185.25 143.091 185.61C142.471 185.97 141.981 186.5 141.621 187.2C141.281 187.9 141.111 188.79 141.111 189.87V198H137.361V189.3C137.361 187.88 137.051 186.82 136.431 186.12C135.811 185.42 134.921 185.07 133.761 185.07C132.941 185.07 132.211 185.25 131.571 185.61C130.951 185.97 130.461 186.5 130.101 187.2C129.761 187.9 129.591 188.79 129.591 189.87V198H125.841V181.98H129.411V186.24L128.781 184.98C129.321 183.94 130.101 183.15 131.121 182.61C132.161 182.07 133.341 181.8 134.661 181.8C136.161 181.8 137.461 182.17 138.561 182.91C139.681 183.65 140.421 184.77 140.781 186.27L139.311 185.76C139.831 184.56 140.691 183.6 141.891 182.88C143.091 182.16 144.481 181.8 146.061 181.8ZM166.303 198.21C165.003 198.21 163.813 197.91 162.733 197.31C161.673 196.71 160.823 195.81 160.183 194.61C159.563 193.39 159.253 191.85 159.253 189.99C159.253 188.11 159.553 186.57 160.153 185.37C160.773 184.17 161.613 183.28 162.673 182.7C163.733 182.1 164.943 181.8 166.303 181.8C167.883 181.8 169.273 182.14 170.473 182.82C171.693 183.5 172.653 184.45 173.353 185.67C174.073 186.89 174.433 188.33 174.433 189.99C174.433 191.65 174.073 193.1 173.353 194.34C172.653 195.56 171.693 196.51 170.473 197.19C169.273 197.87 167.883 198.21 166.303 198.21ZM157.423 203.82V181.98H160.993V185.76L160.873 190.02L161.173 194.28V203.82H157.423ZM165.883 195C166.783 195 167.583 194.8 168.283 194.4C169.003 194 169.573 193.42 169.993 192.66C170.413 191.9 170.623 191.01 170.623 189.99C170.623 188.95 170.413 188.06 169.993 187.32C169.573 186.56 169.003 185.98 168.283 185.58C167.583 185.18 166.783 184.98 165.883 184.98C164.983 184.98 164.173 185.18 163.453 185.58C162.733 185.98 162.163 186.56 161.743 187.32C161.323 188.06 161.113 188.95 161.113 189.99C161.113 191.01 161.323 191.9 161.743 192.66C162.163 193.42 162.733 194 163.453 194.4C164.173 194.8 164.983 195 165.883 195ZM177.989 198V181.98H181.559V186.39L181.139 185.1C181.619 184.02 182.369 183.2 183.389 182.64C184.429 182.08 185.719 181.8 187.259 181.8V185.37C187.099 185.33 186.949 185.31 186.809 185.31C186.669 185.29 186.529 185.28 186.389 185.28C184.969 185.28 183.839 185.7 182.999 186.54C182.159 187.36 181.739 188.59 181.739 190.23V198H177.989ZM197.824 198.21C196.044 198.21 194.484 197.86 193.144 197.16C191.824 196.44 190.794 195.46 190.054 194.22C189.334 192.98 188.974 191.57 188.974 189.99C188.974 188.39 189.324 186.98 190.024 185.76C190.744 184.52 191.724 183.55 192.964 182.85C194.224 182.15 195.654 181.8 197.254 181.8C198.814 181.8 200.204 182.14 201.424 182.82C202.644 183.5 203.604 184.46 204.304 185.7C205.004 186.94 205.354 188.4 205.354 190.08C205.354 190.24 205.344 190.42 205.324 190.62C205.324 190.82 205.314 191.01 205.294 191.19H191.944V188.7H203.314L201.844 189.48C201.864 188.56 201.674 187.75 201.274 187.05C200.874 186.35 200.324 185.8 199.624 185.4C198.944 185 198.154 184.8 197.254 184.8C196.334 184.8 195.524 185 194.824 185.4C194.144 185.8 193.604 186.36 193.204 187.08C192.824 187.78 192.634 188.61 192.634 189.57V190.17C192.634 191.13 192.854 191.98 193.294 192.72C193.734 193.46 194.354 194.03 195.154 194.43C195.954 194.83 196.874 195.03 197.914 195.03C198.814 195.03 199.624 194.89 200.344 194.61C201.064 194.33 201.704 193.89 202.264 193.29L204.274 195.6C203.554 196.44 202.644 197.09 201.544 197.55C200.464 197.99 199.224 198.21 197.824 198.21ZM214.637 198L224.087 177H227.927L237.407 198H233.327L225.197 179.07H226.757L218.657 198H214.637ZM218.987 193.14L220.037 190.08H231.377L232.427 193.14H218.987ZM246.351 198.21C244.811 198.21 243.421 197.87 242.181 197.19C240.961 196.49 240.001 195.53 239.301 194.31C238.601 193.09 238.251 191.65 238.251 189.99C238.251 188.33 238.601 186.89 239.301 185.67C240.001 184.45 240.961 183.5 242.181 182.82C243.421 182.14 244.811 181.8 246.351 181.8C247.691 181.8 248.891 182.1 249.951 182.7C251.011 183.28 251.851 184.17 252.471 185.37C253.091 186.57 253.401 188.11 253.401 189.99C253.401 191.85 253.101 193.39 252.501 194.61C251.901 195.81 251.071 196.71 250.011 197.31C248.951 197.91 247.731 198.21 246.351 198.21ZM246.801 195C247.701 195 248.501 194.8 249.201 194.4C249.921 194 250.491 193.42 250.911 192.66C251.351 191.9 251.571 191.01 251.571 189.99C251.571 188.95 251.351 188.06 250.911 187.32C250.491 186.56 249.921 185.98 249.201 185.58C248.501 185.18 247.701 184.98 246.801 184.98C245.901 184.98 245.091 185.18 244.371 185.58C243.671 185.98 243.101 186.56 242.661 187.32C242.241 188.06 242.031 188.95 242.031 189.99C242.031 191.01 242.241 191.9 242.661 192.66C243.101 193.42 243.671 194 244.371 194.4C245.091 194.8 245.901 195 246.801 195ZM251.661 198V194.22L251.811 189.96L251.511 185.7V175.74H255.231V198H251.661ZM267.697 198.21C265.917 198.21 264.357 197.86 263.017 197.16C261.697 196.44 260.667 195.46 259.927 194.22C259.207 192.98 258.847 191.57 258.847 189.99C258.847 188.39 259.197 186.98 259.897 185.76C260.617 184.52 261.597 183.55 262.837 182.85C264.097 182.15 265.527 181.8 267.127 181.8C268.687 181.8 270.077 182.14 271.297 182.82C272.517 183.5 273.477 184.46 274.177 185.7C274.877 186.94 275.227 188.4 275.227 190.08C275.227 190.24 275.217 190.42 275.197 190.62C275.197 190.82 275.187 191.01 275.167 191.19H261.817V188.7H273.187L271.717 189.48C271.737 188.56 271.547 187.75 271.147 187.05C270.747 186.35 270.197 185.8 269.497 185.4C268.817 185 268.027 184.8 267.127 184.8C266.207 184.8 265.397 185 264.697 185.4C264.017 185.8 263.477 186.36 263.077 187.08C262.697 187.78 262.507 188.61 262.507 189.57V190.17C262.507 191.13 262.727 191.98 263.167 192.72C263.607 193.46 264.227 194.03 265.027 194.43C265.827 194.83 266.747 195.03 267.787 195.03C268.687 195.03 269.497 194.89 270.217 194.61C270.937 194.33 271.577 193.89 272.137 193.29L274.147 195.6C273.427 196.44 272.517 197.09 271.417 197.55C270.337 197.99 269.097 198.21 267.697 198.21ZM278.829 198V175.74H282.579V198H278.829ZM297.371 198V194.76L297.161 194.07V188.4C297.161 187.3 296.831 186.45 296.171 185.85C295.511 185.23 294.511 184.92 293.171 184.92C292.271 184.92 291.381 185.06 290.501 185.34C289.641 185.62 288.911 186.01 288.311 186.51L286.841 183.78C287.701 183.12 288.721 182.63 289.901 182.31C291.101 181.97 292.341 181.8 293.621 181.8C295.941 181.8 297.731 182.36 298.991 183.48C300.271 184.58 300.911 186.29 300.911 188.61V198H297.371ZM292.331 198.21C291.131 198.21 290.081 198.01 289.181 197.61C288.281 197.19 287.581 196.62 287.081 195.9C286.601 195.16 286.361 194.33 286.361 193.41C286.361 192.51 286.571 191.7 286.991 190.98C287.431 190.26 288.141 189.69 289.121 189.27C290.101 188.85 291.401 188.64 293.021 188.64H297.671V191.13H293.291C292.011 191.13 291.151 191.34 290.711 191.76C290.271 192.16 290.051 192.66 290.051 193.26C290.051 193.94 290.321 194.48 290.861 194.88C291.401 195.28 292.151 195.48 293.111 195.48C294.031 195.48 294.851 195.27 295.571 194.85C296.311 194.43 296.841 193.81 297.161 192.99L297.791 195.24C297.431 196.18 296.781 196.91 295.841 197.43C294.921 197.95 293.751 198.21 292.331 198.21ZM314.814 181.8C316.094 181.8 317.234 182.05 318.234 182.55C319.254 183.05 320.054 183.82 320.634 184.86C321.214 185.88 321.504 187.2 321.504 188.82V198H317.754V189.3C317.754 187.88 317.414 186.82 316.734 186.12C316.074 185.42 315.144 185.07 313.944 185.07C313.064 185.07 312.284 185.25 311.604 185.61C310.924 185.97 310.394 186.51 310.014 187.23C309.654 187.93 309.474 188.82 309.474 189.9V198H305.724V181.98H309.294V186.3L308.664 184.98C309.224 183.96 310.034 183.18 311.094 182.64C312.174 182.08 313.414 181.8 314.814 181.8ZM332.291 198.21C330.531 198.21 329.171 197.76 328.211 196.86C327.251 195.94 326.771 194.59 326.771 192.81V178.44H330.521V192.72C330.521 193.48 330.711 194.07 331.091 194.49C331.491 194.91 332.041 195.12 332.741 195.12C333.581 195.12 334.281 194.9 334.841 194.46L335.891 197.13C335.451 197.49 334.911 197.76 334.271 197.94C333.631 198.12 332.971 198.21 332.291 198.21ZM324.131 185.1V182.1H334.811V185.1H324.131ZM345.978 198.21C344.198 198.21 342.638 197.86 341.298 197.16C339.978 196.44 338.948 195.46 338.208 194.22C337.488 192.98 337.128 191.57 337.128 189.99C337.128 188.39 337.478 186.98 338.178 185.76C338.898 184.52 339.878 183.55 341.118 182.85C342.378 182.15 343.808 181.8 345.408 181.8C346.968 181.8 348.358 182.14 349.578 182.82C350.798 183.5 351.758 184.46 352.458 185.7C353.158 186.94 353.508 188.4 353.508 190.08C353.508 190.24 353.498 190.42 353.478 190.62C353.478 190.82 353.468 191.01 353.448 191.19H340.098V188.7H351.468L349.998 189.48C350.018 188.56 349.828 187.75 349.428 187.05C349.028 186.35 348.478 185.8 347.778 185.4C347.098 185 346.308 184.8 345.408 184.8C344.488 184.8 343.678 185 342.978 185.4C342.298 185.8 341.758 186.36 341.358 187.08C340.978 187.78 340.788 188.61 340.788 189.57V190.17C340.788 191.13 341.008 191.98 341.448 192.72C341.888 193.46 342.508 194.03 343.308 194.43C344.108 194.83 345.028 195.03 346.068 195.03C346.968 195.03 347.778 194.89 348.498 194.61C349.218 194.33 349.858 193.89 350.418 193.29L352.428 195.6C351.708 196.44 350.798 197.09 349.698 197.55C348.618 197.99 347.378 198.21 345.978 198.21ZM357.35 191.04L356.63 177H361.07L360.32 191.04H357.35ZM358.85 198.21C358.15 198.21 357.57 197.98 357.11 197.52C356.65 197.06 356.42 196.51 356.42 195.87C356.42 195.23 356.65 194.69 357.11 194.25C357.57 193.79 358.15 193.56 358.85 193.56C359.55 193.56 360.12 193.79 360.56 194.25C361 194.69 361.22 195.23 361.22 195.87C361.22 196.51 361 197.06 360.56 197.52C360.12 197.98 359.55 198.21 358.85 198.21Z" fill="black"/>
</svg>
