<svg width="253" height="320" viewBox="0 0 253 320" fill="none" xmlns="http://www.w3.org/2000/svg">
<path d="M68.7995 205.595H183.345C221.374 205.595 252.072 236.206 252.072 274.127V319.815H0.0722656V274.127C0.0722656 236.206 30.7704 205.595 68.7995 205.595ZM68.7995 68.5312H183.345V125.641C183.345 140.788 177.311 155.314 166.57 166.024C155.829 176.734 141.262 182.751 126.072 182.751C110.883 182.751 96.315 176.734 85.5743 166.024C74.8336 155.314 68.7995 140.788 68.7995 125.641V68.5312Z" fill="black"/>
<path d="M194.8 66.9329V57.11C194.8 31.9816 174.182 11.422 148.982 11.422L137.527 0H103.164C77.9637 0 57.3455 20.5596 57.3455 45.688V66.9329C57.3455 97.3155 45.2037 126.327 23.8983 147.801L11.5273 160.137L28.4801 168.589C45.891 177.27 66.7383 173.843 80.2546 160.137H171.891C185.636 173.843 206.484 177.27 223.666 168.589L240.618 160.137L228.247 147.801C217.617 137.174 209.192 124.562 203.452 110.686C197.713 96.8103 194.773 81.9426 194.8 66.9329Z" fill="black"/>
</svg>
