<svg width="253" height="345" viewBox="0 0 253 345" fill="none" xmlns="http://www.w3.org/2000/svg">
<path d="M68.7634 221.875H183.309C221.338 221.875 252.036 254.872 252.036 295.75V345H0.0361328V295.75C0.0361328 254.872 30.7343 221.875 68.7634 221.875ZM68.7634 74.124H183.309V135.687C183.309 152.014 177.275 167.673 166.534 179.218C155.793 190.764 141.226 197.25 126.036 197.25C110.846 197.25 96.2789 190.764 85.5382 179.218C74.7975 167.673 68.7634 152.014 68.7634 135.687V74.124ZM183.309 74.124C195.909 74.124 206.218 85.2053 206.218 98.7491C206.218 112.293 195.909 123.374 183.309 123.374V74.124ZM68.7634 123.374C56.1634 123.374 45.8543 112.293 45.8543 98.7491C45.8543 85.2053 56.1634 74.124 68.7634 74.124V123.374Z" fill="black"/>
<path d="M71.5128 77.0766H60.0582C42.8764 61.809 45.8546 38.4152 45.8546 18.7151C45.8546 -0.985005 57.3091 12.3126 68.7637 12.3126C80.2182 12.3126 91.6728 24.6251 91.6728 24.6251C71.5128 24.6251 68.7637 0 68.7637 0H137.491C162.691 0 183.309 22.1626 183.309 49.2502H194.764C194.764 49.2502 200.491 67.7191 192.015 80.0316L71.7419 77.0766H71.5128Z" fill="black"/>
</svg>
